<?xml version="1.0" standalone="no"?>
<!DOCTYPE svg PUBLIC "-//W3C//DTD SVG 20010904//EN"
 "http://www.w3.org/TR/2001/REC-SVG-20010904/DTD/svg10.dtd">
<svg version="1.0" xmlns="http://www.w3.org/2000/svg"
 width="700.000000pt" height="700.000000pt" viewBox="0 0 700.000000 700.000000"
 preserveAspectRatio="xMidYMid meet">
<metadata>
Created by potrace 1.14, written by Peter Selinger 2001-2017
</metadata>
<g transform="translate(0.000000,700.000000) scale(0.100000,-0.100000)"
fill="#000000" stroke="none">
<path d="M0 3500 l0 -3500 3500 0 3500 0 0 3500 0 3500 -3500 0 -3500 0 0
-3500z m1037 643 c17 -71 71 -295 119 -500 49 -205 91 -369 95 -365 3 4 57
223 119 487 62 264 115 486 118 493 3 10 44 12 176 10 l171 -3 108 -460 c60
-253 114 -480 120 -504 12 -44 14 -36 132 460 l120 504 168 3 c157 2 167 1
167 -16 0 -10 -72 -323 -160 -696 -88 -373 -160 -680 -160 -682 0 -2 -94 -4
-208 -4 l-208 0 -124 520 c-69 286 -127 520 -130 520 -3 0 -59 -228 -124 -508
-66 -279 -122 -513 -124 -519 -3 -10 -54 -13 -211 -13 l-206 0 -163 688 c-90
378 -163 693 -162 700 0 9 41 12 168 12 l169 0 30 -127z m3410 117 c191 -13
280 -32 390 -85 194 -94 310 -260 344 -494 33 -233 -33 -453 -181 -601 -170
-170 -365 -215 -895 -208 l-230 3 -3 685 c-1 377 0 691 3 698 6 15 358 17 572
2z m-979 -335 c235 -55 371 -236 388 -513 l7 -112 -391 0 -392 0 0 -25 c0 -72
66 -154 148 -186 50 -18 71 -20 172 -16 125 5 233 33 342 88 32 16 60 29 63
29 3 0 5 -56 5 -126 l0 -125 -37 -16 c-184 -77 -514 -99 -678 -47 -181 59
-304 186 -346 359 -19 78 -16 259 5 330 72 242 263 373 546 374 59 1 132 -6
168 -14z m2686 -5 c102 -26 168 -63 239 -132 194 -191 196 -582 5 -784 -99
-104 -243 -156 -433 -156 -196 0 -337 52 -439 163 -92 99 -136 223 -136 384 0
276 151 475 403 530 97 21 269 19 361 -5z"/>
<path d="M4232 3568 l3 -423 70 -3 c87 -4 212 13 281 39 162 61 256 257 225
466 -27 179 -119 284 -286 328 -37 9 -103 15 -177 15 l-118 0 2 -422z"/>
<path d="M3199 3692 c-57 -30 -101 -88 -114 -149 l-7 -33 216 0 216 0 0 28
c-1 36 -31 102 -61 129 -65 59 -165 69 -250 25z"/>
<path d="M5863 3679 c-88 -43 -129 -151 -121 -320 8 -161 62 -245 174 -269 96
-21 183 15 228 93 49 85 60 271 21 377 -19 53 -67 107 -112 126 -49 21 -140
18 -190 -7z"/>
</g>
</svg>
