<?xml version="1.0" standalone="no"?>
<!DOCTYPE svg PUBLIC "-//W3C//DTD SVG 20010904//EN"
 "http://www.w3.org/TR/2001/REC-SVG-20010904/DTD/svg10.dtd">
<svg version="1.0" xmlns="http://www.w3.org/2000/svg"
 width="1024.000000pt" height="1024.000000pt" viewBox="0 0 1024.000000 1024.000000"
 preserveAspectRatio="xMidYMid meet">
<metadata>
Created by potrace 1.14, written by Peter Selinger 2001-2017
</metadata>
<g transform="translate(0.000000,1024.000000) scale(0.100000,-0.100000)"
fill="#000000" stroke="none">
<path d="M0 5120 l0 -5120 5120 0 5120 0 0 5120 0 5120 -5120 0 -5120 0 0
-5120z m1371 1049 c79 -44 93 -75 291 -669 100 -302 185 -550 188 -550 3 0 88
233 189 518 102 284 195 540 209 567 53 108 108 152 206 162 103 11 184 -34
232 -129 14 -27 108 -295 209 -595 101 -300 186 -547 188 -550 2 -2 84 232
182 519 98 288 189 549 201 582 51 128 111 171 239 171 66 -1 88 -5 122 -25
86 -48 121 -144 90 -245 -36 -122 -571 -1584 -593 -1621 -49 -86 -119 -125
-224 -125 -127 -1 -203 42 -251 142 -15 30 -106 280 -205 556 -98 277 -181
500 -184 495 -4 -4 -87 -230 -185 -502 -98 -272 -189 -517 -202 -543 -32 -65
-89 -120 -142 -135 -64 -20 -173 -17 -223 6 -49 21 -113 88 -134 139 -36 84
-566 1571 -574 1610 -19 81 9 159 72 206 69 51 220 59 299 16z m5369 -27 c225
-54 344 -116 481 -252 184 -181 259 -386 259 -700 0 -212 -36 -373 -116 -518
-129 -235 -331 -375 -639 -443 -92 -20 -134 -22 -507 -26 -465 -6 -485 -3
-558 68 -72 70 -70 45 -70 918 0 489 4 789 10 812 13 45 47 96 81 121 63 47
77 48 539 44 397 -3 443 -5 520 -24z m-1870 -563 c112 -31 186 -74 271 -159
121 -119 175 -253 186 -455 5 -108 5 -112 -20 -140 l-25 -30 -436 -3 c-261 -1
-436 -6 -436 -12 0 -5 9 -33 20 -63 25 -67 69 -113 140 -146 51 -24 64 -26
195 -25 129 0 148 3 239 32 118 38 161 40 207 9 54 -36 79 -82 79 -143 0 -104
-43 -158 -160 -203 -136 -52 -219 -66 -395 -66 -193 1 -289 21 -434 91 -173
84 -297 239 -348 434 -20 79 -23 280 -5 359 67 292 285 493 587 541 88 13 248
4 335 -21z m3847 1 c252 -60 435 -236 500 -480 25 -91 25 -329 0 -420 -83
-310 -323 -488 -684 -507 -331 -17 -601 114 -725 353 -47 90 -65 150 -79 259
-20 159 5 322 74 463 44 92 167 215 262 264 79 41 181 74 270 88 88 13 286 3
382 -20z"/>
<path d="M6108 5755 c-5 -5 -8 -262 -8 -572 l0 -563 193 0 c215 0 292 12 393
59 185 87 275 279 261 556 -10 172 -45 274 -126 366 -48 55 -151 112 -242 134
-70 18 -458 33 -471 20z"/>
<path d="M4625 5281 c-109 -19 -193 -107 -211 -220 l-7 -41 258 0 258 0 -6 51
c-11 92 -65 170 -137 197 -39 14 -111 20 -155 13z"/>
<path d="M8373 5216 c-101 -48 -147 -150 -147 -326 1 -177 46 -279 147 -326
62 -28 148 -32 205 -9 56 24 109 82 133 145 49 130 32 355 -34 443 -69 91
-197 122 -304 73z"/>
</g>
</svg>
