<svg width="168" height="56" viewBox="0 0 168 56" fill="none" xmlns="http://www.w3.org/2000/svg">
<g clip-path="url(#clip0_1_179)">
<path d="M154.226 0.000182H13.3863C12.873 0.000182 12.3657 0.000182 11.8537 0.002982C11.4251 0.005782 10.9999 0.013916 10.5672 0.020762C9.6271 0.0318245 8.68923 0.114529 7.76172 0.268156C6.83551 0.425128 5.93832 0.721064 5.10049 1.14596C4.26368 1.57444 3.49906 2.13122 2.83438 2.79608C2.1662 3.45907 1.60923 4.22541 1.18487 5.06561C0.759341 5.90414 0.464277 6.8027 0.309871 7.73026C0.153996 8.65664 0.0701185 9.59371 0.0589908 10.5331C0.0459988 10.9623 0.0446268 11.393 0.0377808 11.8223V44.1822C0.0446268 44.6169 0.0459988 45.038 0.0589908 45.4729C0.0701219 46.4122 0.153999 47.3492 0.309871 48.2755C0.463851 49.2036 0.758932 50.1027 1.18487 50.9416C1.60904 51.779 2.16609 52.5423 2.83438 53.2016C3.49654 53.8694 4.26165 54.4266 5.10049 54.8518C5.93832 55.2778 6.83541 55.5755 7.76172 55.7349C8.68939 55.8873 9.62716 55.97 10.5672 55.9824C10.9999 55.9919 11.4251 55.9974 11.8537 55.9974C12.3657 56.0002 12.873 56.0002 13.3863 56.0002H154.226C154.73 56.0002 155.241 56.0002 155.744 55.9974C156.171 55.9974 156.608 55.9919 157.035 55.9824C157.973 55.9707 158.909 55.8879 159.835 55.7349C160.764 55.5744 161.664 55.2767 162.506 54.8518C163.344 54.4263 164.109 53.8692 164.77 53.2016C165.437 52.5397 165.995 51.777 166.425 50.9416C166.847 50.1021 167.14 49.2031 167.291 48.2755C167.447 47.3491 167.534 46.4123 167.551 45.4729C167.557 45.038 167.557 44.6169 167.557 44.1822C167.567 43.6736 167.567 43.1678 167.567 42.6509V13.3508C167.567 12.8381 167.567 12.3295 167.557 11.8223C167.557 11.393 167.557 10.9623 167.551 10.533C167.534 9.59357 167.447 8.65671 167.291 7.7302C167.139 6.80318 166.847 5.90469 166.425 5.06555C165.56 3.38146 164.19 2.01062 162.506 1.14583C161.664 0.721976 160.764 0.426119 159.835 0.26803C158.909 0.113726 157.973 0.0309929 157.035 0.020566C156.608 0.013734 156.171 0.00553 155.744 0.0028C155.241 0 154.73 0.000182 154.226 0.000182Z" fill="#A6A6A6"/>
<path d="M11.8605 54.775C11.434 54.775 11.0177 54.7695 10.5945 54.76C9.71783 54.7486 8.84317 54.6722 7.97774 54.5317C7.17077 54.3927 6.38903 54.1341 5.6583 53.7646C4.93428 53.3981 4.27392 52.9176 3.7025 52.3414C3.12282 51.7719 2.64021 51.1115 2.27379 50.3863C1.90334 49.6563 1.64696 48.8738 1.51359 48.0662C1.36956 47.1983 1.29164 46.3208 1.28049 45.4412C1.27161 45.1459 1.25999 44.1628 1.25999 44.1628V11.8221C1.25999 11.8221 1.27237 10.8541 1.28056 10.5697C1.29124 9.69145 1.36871 8.81529 1.5123 7.9488C1.64592 7.13893 1.90249 6.35422 2.27315 5.62186C2.63822 4.8971 3.11815 4.23618 3.69434 3.66473C4.26989 3.08785 4.93236 2.60482 5.65762 2.23327C6.38666 1.86491 7.16692 1.6082 7.97227 1.47175C8.84054 1.32975 9.71824 1.25297 10.598 1.24207L11.8612 1.22498H155.737L157.016 1.24276C157.887 1.25311 158.757 1.32921 159.617 1.47038C160.431 1.60854 161.219 1.86704 161.957 2.23737C163.41 2.98616 164.592 4.1708 165.338 5.62527C165.702 6.35258 165.955 7.13088 166.087 7.93376C166.232 8.80736 166.313 9.69041 166.33 10.5759C166.334 10.9723 166.334 11.3982 166.334 11.8221C166.345 12.3471 166.345 12.8468 166.345 13.3506V42.6507C166.345 43.1593 166.345 43.6556 166.334 44.156C166.334 44.6113 166.334 45.0283 166.329 45.4576C166.312 46.3272 166.232 47.1945 166.089 48.0525C165.959 48.8659 165.704 49.6545 165.333 50.3905C164.964 51.1078 164.485 51.7625 163.912 52.3304C163.34 52.9097 162.678 53.3931 161.952 53.7619C161.217 54.1343 160.43 54.3938 159.617 54.5317C158.752 54.673 157.877 54.7493 157 54.76C156.59 54.7695 156.161 54.775 155.744 54.775L154.226 54.7778L11.8605 54.775Z" fill="black"/>
<path d="M34.7142 28.421C34.7293 27.2525 35.0396 26.1067 35.6165 25.0904C36.1933 24.0741 37.0179 23.2202 38.0134 22.6081C37.381 21.7049 36.5466 20.9616 35.5767 20.4372C34.6067 19.9128 33.5279 19.6218 32.4258 19.5874C30.0748 19.3406 27.7957 20.9941 26.5977 20.9941C25.3765 20.9941 23.532 19.6119 21.5458 19.6527C20.2611 19.6942 19.009 20.0678 17.9116 20.7371C16.8141 21.4064 15.9088 22.3485 15.2837 23.4717C12.5761 28.1595 14.5957 35.049 17.1894 38.8383C18.4871 40.6937 20.0037 42.7664 21.9881 42.6929C23.93 42.6123 24.6552 41.4546 26.9992 41.4546C29.3215 41.4546 30.0019 42.6929 32.0266 42.6461C34.1104 42.6123 35.4232 40.7824 36.6754 38.9093C37.6077 37.5872 38.3252 36.126 38.8011 34.5798C37.5906 34.0678 36.5575 33.2108 35.8307 32.1156C35.1039 31.0203 34.7156 29.7354 34.7142 28.421Z" fill="white"/>
<path d="M30.8899 17.0952C32.0261 15.7314 32.5858 13.9783 32.4502 12.2084C30.7145 12.3907 29.1111 13.2203 27.9596 14.5318C27.3966 15.1726 26.9654 15.918 26.6907 16.7254C26.416 17.5329 26.3031 18.3866 26.3584 19.2378C27.2266 19.2467 28.0855 19.0585 28.8705 18.6874C29.6554 18.3163 30.3459 17.7719 30.8899 17.0952Z" fill="white"/>
<path d="M59.2609 37.9955H52.6342L51.0428 42.6945H48.2359L54.5127 25.3093H57.4289L63.7057 42.6945H60.851L59.2609 37.9955ZM53.3205 35.8271H58.5733L55.9839 28.201H55.9114L53.3205 35.8271Z" fill="white"/>
<path d="M77.2613 36.3575C77.2613 40.2964 75.1531 42.8271 71.9717 42.8271C71.1658 42.8692 70.3643 42.6836 69.659 42.2914C68.9537 41.8992 68.373 41.3163 67.9836 40.6095H67.9234V46.8876H65.3217V30.0192H67.8401V32.1274H67.8879C68.2952 31.424 68.8857 30.8441 69.5963 30.4495C70.307 30.055 71.1114 29.8604 71.9238 29.8866C75.1408 29.8866 77.2613 32.4296 77.2613 36.3575ZM74.5871 36.3575C74.5871 33.7913 73.2609 32.1042 71.2375 32.1042C69.2496 32.1042 67.9125 33.8269 67.9125 36.3575C67.9125 38.9114 69.2496 40.6218 71.2375 40.6218C73.261 40.6218 74.5871 38.947 74.5871 36.3575Z" fill="white"/>
<path d="M91.2121 36.3576C91.2121 40.2965 89.1039 42.8272 85.9225 42.8272C85.1166 42.8693 84.3151 42.6837 83.6097 42.2915C82.9044 41.8993 82.3238 41.3164 81.9344 40.6096H81.8742V46.8877H79.2724V30.0193H81.7908V32.1275H81.8386C82.246 31.4241 82.8364 30.8442 83.5471 30.4497C84.2578 30.0551 85.0621 29.8605 85.8746 29.8867C89.0916 29.8867 91.2121 32.4297 91.2121 36.3576ZM88.5379 36.3576C88.5379 33.7914 87.2117 32.1043 85.1883 32.1043C83.2004 32.1043 81.8633 33.827 81.8633 36.3576C81.8633 38.9115 83.2004 40.6219 85.1883 40.6219C87.2117 40.6219 88.5379 38.9471 88.5379 36.3576Z" fill="white"/>
<path d="M100.432 37.8505C100.625 39.5746 102.3 40.7065 104.589 40.7065C106.782 40.7065 108.359 39.5745 108.359 38.02C108.359 36.6706 107.408 35.8626 105.155 35.3089L102.902 34.7661C99.7092 33.995 98.2272 32.502 98.2272 30.0794C98.2272 27.0798 100.841 25.0194 104.553 25.0194C108.227 25.0194 110.745 27.0798 110.83 30.0794H108.203C108.046 28.3444 106.612 27.2972 104.516 27.2972C102.42 27.2972 100.986 28.3567 100.986 29.8989C100.986 31.128 101.902 31.8513 104.143 32.4049L106.058 32.8752C109.625 33.7188 111.107 35.1516 111.107 37.6946C111.107 40.9471 108.517 42.9842 104.396 42.9842C100.54 42.9842 97.9373 40.9949 97.7691 37.8504L100.432 37.8505Z" fill="white"/>
<path d="M116.722 27.0197V30.0193H119.133V32.0796H116.722V39.0673C116.722 40.1529 117.205 40.6587 118.265 40.6587C118.551 40.6537 118.836 40.6336 119.121 40.5985V42.6466C118.644 42.7356 118.16 42.7759 117.675 42.7669C115.109 42.7669 114.108 41.803 114.108 39.3448V32.0796H112.265V30.0193H114.108V27.0197H116.722Z" fill="white"/>
<path d="M120.529 36.3575C120.529 32.3695 122.878 29.8634 126.54 29.8634C130.215 29.8634 132.553 32.3694 132.553 36.3575C132.553 40.3566 130.228 42.8517 126.54 42.8517C122.854 42.8517 120.529 40.3566 120.529 36.3575ZM129.902 36.3575C129.902 33.6218 128.648 32.0072 126.54 32.0072C124.432 32.0072 123.18 33.6341 123.18 36.3575C123.18 39.1042 124.432 40.7066 126.54 40.7066C128.648 40.7066 129.902 39.1042 129.902 36.3575Z" fill="white"/>
<path d="M134.698 30.0192H137.18V32.1766H137.24C137.408 31.5028 137.803 30.9074 138.358 30.4903C138.913 30.0733 139.595 29.8601 140.289 29.8866C140.589 29.8856 140.888 29.9181 141.18 29.9837V32.4173C140.802 32.3016 140.407 32.2485 140.011 32.2601C139.633 32.2447 139.256 32.3114 138.907 32.4554C138.557 32.5994 138.242 32.8175 137.985 33.0945C137.727 33.3716 137.533 33.7011 137.414 34.0604C137.296 34.4197 137.257 34.8004 137.3 35.1763V42.6944H134.698L134.698 30.0192Z" fill="white"/>
<path d="M153.176 38.9716C152.826 41.2726 150.585 42.8517 147.718 42.8517C144.031 42.8517 141.742 40.3812 141.742 36.4177C141.742 32.4419 144.043 29.8634 147.609 29.8634C151.115 29.8634 153.321 32.2724 153.321 36.1155V37.007H144.368V37.1642C144.327 37.6307 144.385 38.1006 144.54 38.5428C144.694 38.9849 144.941 39.3892 145.263 39.7288C145.586 40.0684 145.977 40.3354 146.41 40.5123C146.844 40.6891 147.31 40.7716 147.778 40.7544C148.393 40.812 149.01 40.6696 149.537 40.3484C150.065 40.0272 150.474 39.5443 150.705 38.9716L153.176 38.9716ZM144.381 35.1886H150.718C150.741 34.7692 150.677 34.3494 150.531 33.9557C150.384 33.562 150.158 33.2029 149.866 32.9008C149.574 32.5987 149.223 32.3603 148.834 32.2004C148.446 32.0405 148.029 31.9626 147.609 31.9716C147.185 31.9691 146.765 32.0505 146.373 32.2111C145.981 32.3718 145.624 32.6085 145.324 32.9075C145.024 33.2066 144.786 33.5622 144.624 33.9537C144.462 34.3452 144.38 34.7649 144.381 35.1886Z" fill="white"/>
<path d="M52.9944 12.2233C53.5399 12.1842 54.0872 12.2666 54.597 12.4646C55.1068 12.6626 55.5662 12.9713 55.9422 13.3684C56.3183 13.7654 56.6015 14.241 56.7714 14.7608C56.9414 15.2806 56.9939 15.8316 56.9251 16.3741C56.9251 19.0429 55.4827 20.5769 52.9944 20.5769H49.9771V12.2233H52.9944ZM51.2745 19.3955H52.8495C53.2393 19.4188 53.6293 19.3549 53.9913 19.2085C54.3532 19.062 54.678 18.8367 54.9419 18.5489C55.2058 18.2611 55.4022 17.9181 55.5168 17.5448C55.6314 17.1716 55.6613 16.7774 55.6044 16.3911C55.6572 16.0064 55.6242 15.6147 55.5079 15.2442C55.3915 14.8736 55.1946 14.5334 54.9313 14.2479C54.668 13.9624 54.3448 13.7387 53.9849 13.5928C53.625 13.4468 53.2373 13.3823 52.8495 13.4038H51.2745V19.3955Z" fill="white"/>
<path d="M58.3907 17.4221C58.3511 17.0078 58.3985 16.5898 58.5299 16.1949C58.6612 15.8 58.8737 15.4369 59.1536 15.1289C59.4335 14.8209 59.7747 14.5749 60.1553 14.4065C60.5359 14.2381 60.9475 14.1511 61.3637 14.1511C61.7799 14.1511 62.1914 14.2381 62.572 14.4065C62.9526 14.5749 63.2938 14.8209 63.5737 15.1289C63.8537 15.4369 64.0661 15.8 64.1975 16.1949C64.3289 16.5898 64.3763 17.0078 64.3366 17.4221C64.377 17.8368 64.3302 18.2553 64.1992 18.6509C64.0681 19.0464 63.8558 19.4102 63.5758 19.7187C63.2958 20.0273 62.9544 20.2739 62.5734 20.4426C62.1924 20.6114 61.7803 20.6986 61.3637 20.6986C60.947 20.6986 60.5349 20.6114 60.154 20.4426C59.773 20.2739 59.4315 20.0273 59.1516 19.7187C58.8716 19.4102 58.6592 19.0464 58.5282 18.6509C58.3972 18.2553 58.3503 17.8368 58.3907 17.4221ZM63.0569 17.4221C63.0569 16.0556 62.4431 15.2564 61.3657 15.2564C60.2843 15.2564 59.6759 16.0556 59.6759 17.4221C59.6759 18.7995 60.2843 19.5925 61.3657 19.5925C62.4431 19.5925 63.0569 18.794 63.0569 17.4221Z" fill="white"/>
<path d="M72.2403 20.5768H70.9497L69.6468 15.9338H69.5484L68.2509 20.5768H66.9726L65.2349 14.2727H66.4968L67.6261 19.0831H67.7191L69.0152 14.2727H70.2087L71.5048 19.0831H71.6032L72.7271 14.2727H73.9712L72.2403 20.5768Z" fill="white"/>
<path d="M75.5591 14.1279H76.7567V15.1294H76.8497C77.0074 14.7697 77.2734 14.4681 77.6107 14.2668C77.9479 14.0655 78.3395 13.9744 78.731 14.0062C79.0377 13.9831 79.3457 14.0294 79.6321 14.1415C79.9186 14.2537 80.1761 14.4288 80.3857 14.654C80.5952 14.8792 80.7514 15.1486 80.8427 15.4424C80.934 15.7361 80.958 16.0466 80.913 16.3509V20.4319H79.6689V16.6634C79.6689 15.6503 79.2286 15.1465 78.3085 15.1465C78.1002 15.1368 77.8923 15.1722 77.6991 15.2504C77.5058 15.3285 77.3317 15.4476 77.1887 15.5993C77.0457 15.751 76.9373 15.9319 76.8707 16.1295C76.8042 16.3271 76.7812 16.5367 76.8032 16.744V20.432H75.5591L75.5591 14.1279Z" fill="white"/>
<path d="M82.769 11.8118H84.0132V20.5768H82.769V11.8118Z" fill="white"/>
<path d="M85.7427 17.422C85.7031 17.0077 85.7505 16.5897 85.8819 16.1948C86.0133 15.7999 86.2258 15.4368 86.5057 15.1288C86.7857 14.8208 87.1269 14.5748 87.5075 14.4064C87.8882 14.238 88.2998 14.151 88.716 14.151C89.1322 14.151 89.5438 14.238 89.9244 14.4064C90.305 14.5748 90.6462 14.8208 90.9262 15.1288C91.2061 15.4368 91.4186 15.7999 91.55 16.1948C91.6814 16.5897 91.7289 17.0077 91.6892 17.422C91.7296 17.8368 91.6827 18.2554 91.5516 18.6509C91.4206 19.0464 91.2082 19.4102 90.9282 19.7187C90.6482 20.0273 90.3067 20.2739 89.9257 20.4426C89.5447 20.6114 89.1326 20.6985 88.716 20.6985C88.2993 20.6985 87.8872 20.6114 87.5062 20.4426C87.1252 20.2739 86.7837 20.0273 86.5037 19.7187C86.2237 19.4102 86.0113 19.0464 85.8803 18.6509C85.7492 18.2554 85.7023 17.8368 85.7427 17.422ZM90.4089 17.422C90.4089 16.0555 89.795 15.2564 88.7177 15.2564C87.6362 15.2564 87.0279 16.0556 87.0279 17.4221C87.0279 18.7995 87.6363 19.5925 88.7177 19.5925C89.795 19.5925 90.4089 18.794 90.4089 17.422Z" fill="white"/>
<path d="M92.999 18.794C92.999 17.6592 93.8439 17.005 95.3437 16.912L97.0514 16.8136V16.2695C97.0514 15.6036 96.6111 15.2277 95.7607 15.2277C95.0662 15.2277 94.585 15.4826 94.4469 15.9283H93.2424C93.3695 14.8455 94.3881 14.151 95.8182 14.151C97.3986 14.151 98.29 14.9378 98.29 16.2695V20.5768H97.0924V19.6908H96.9939C96.7941 20.0086 96.5136 20.2677 96.1809 20.4416C95.8482 20.6155 95.4754 20.698 95.1004 20.6806C94.8357 20.7082 94.5683 20.6799 94.3152 20.5978C94.0621 20.5156 93.8291 20.3813 93.6311 20.2035C93.4331 20.0258 93.2746 19.8085 93.1657 19.5657C93.0569 19.3229 93.0001 19.06 92.999 18.794ZM97.0514 18.2553V17.7282L95.5119 17.8267C94.6437 17.8848 94.25 18.1801 94.25 18.7358C94.25 19.3032 94.7422 19.6334 95.419 19.6334C95.6173 19.6535 95.8176 19.6335 96.008 19.5745C96.1984 19.5156 96.375 19.419 96.5273 19.2904C96.6796 19.1618 96.8045 19.0039 96.8945 18.8261C96.9846 18.6483 97.0379 18.4541 97.0514 18.2553Z" fill="white"/>
<path d="M99.9252 17.422C99.9252 15.4301 100.949 14.1681 102.542 14.1681C102.936 14.15 103.327 14.2443 103.669 14.4402C104.012 14.6361 104.291 14.9253 104.475 15.2741H104.568V11.8118H105.812V20.5768H104.62V19.5808H104.522C104.323 19.9273 104.034 20.2129 103.685 20.4068C103.336 20.6007 102.941 20.6954 102.542 20.6807C100.938 20.6808 99.9252 19.4188 99.9252 17.422ZM101.21 17.422C101.21 18.7592 101.841 19.5637 102.895 19.5637C103.943 19.5637 104.591 18.7475 104.591 17.4275C104.591 16.1136 103.937 15.2858 102.895 15.2858C101.847 15.2858 101.21 16.0959 101.21 17.422Z" fill="white"/>
<path d="M110.96 17.4221C110.92 17.0078 110.968 16.5898 111.099 16.1949C111.23 15.8 111.443 15.4369 111.723 15.1289C112.003 14.8209 112.344 14.5749 112.724 14.4065C113.105 14.2381 113.517 14.1511 113.933 14.1511C114.349 14.1511 114.76 14.2381 115.141 14.4065C115.522 14.5749 115.863 14.8209 116.143 15.1289C116.423 15.4369 116.635 15.8 116.767 16.1949C116.898 16.5898 116.945 17.0078 116.906 17.4221C116.946 17.8368 116.899 18.2553 116.768 18.6509C116.637 19.0464 116.425 19.4102 116.145 19.7187C115.865 20.0273 115.523 20.2739 115.142 20.4426C114.761 20.6114 114.349 20.6986 113.933 20.6986C113.516 20.6986 113.104 20.6114 112.723 20.4426C112.342 20.2739 112.001 20.0273 111.721 19.7187C111.441 19.4102 111.228 19.0464 111.097 18.6509C110.966 18.2553 110.919 17.8368 110.96 17.4221ZM115.626 17.4221C115.626 16.0556 115.012 15.2564 113.935 15.2564C112.853 15.2564 112.245 16.0556 112.245 17.4221C112.245 18.7995 112.853 19.5925 113.935 19.5925C115.012 19.5925 115.626 18.794 115.626 17.4221Z" fill="white"/>
<path d="M118.575 14.2727H119.773V15.2741H119.866C120.023 14.9144 120.289 14.6129 120.627 14.4116C120.964 14.2103 121.355 14.1192 121.747 14.151C122.054 14.1279 122.362 14.1742 122.648 14.2863C122.935 14.3984 123.192 14.5736 123.402 14.7988C123.611 15.0239 123.767 15.2934 123.859 15.5871C123.95 15.8809 123.974 16.1914 123.929 16.4957V20.5767H122.685V16.8081C122.685 15.795 122.245 15.2912 121.324 15.2912C121.116 15.2815 120.908 15.317 120.715 15.3951C120.522 15.4733 120.348 15.5923 120.205 15.7441C120.062 15.8958 119.953 16.0767 119.887 16.2742C119.82 16.4718 119.797 16.6815 119.819 16.8888V20.5768H118.575V14.2727Z" fill="white"/>
<path d="M130.959 12.7032V14.3015H132.325V15.3494H130.959V18.591C130.959 19.2514 131.231 19.5406 131.85 19.5406C132.009 19.54 132.167 19.5305 132.325 19.5118V20.5482C132.101 20.5881 131.875 20.6094 131.648 20.6117C130.264 20.6117 129.713 20.125 129.713 18.9096V15.3494H128.713V14.3014H129.713V12.7032H130.959Z" fill="white"/>
<path d="M134.024 11.8118H135.257V15.2858H135.356C135.521 14.9227 135.795 14.6195 136.139 14.4174C136.483 14.2153 136.88 14.1242 137.278 14.1565C137.583 14.1399 137.888 14.1908 138.171 14.3057C138.455 14.4206 138.709 14.5965 138.916 14.821C139.124 15.0454 139.279 15.3129 139.371 15.6043C139.463 15.8957 139.49 16.2038 139.449 16.5067V20.5768H138.204V16.8136C138.204 15.8067 137.735 15.2967 136.856 15.2967C136.642 15.2792 136.427 15.3086 136.226 15.3829C136.024 15.4571 135.842 15.5745 135.69 15.7267C135.539 15.879 135.423 16.0624 135.35 16.2642C135.277 16.466 135.249 16.6812 135.268 16.895V20.5768H134.024L134.024 11.8118Z" fill="white"/>
<path d="M146.704 18.8746C146.534 19.4508 146.168 19.9491 145.669 20.2826C145.17 20.616 144.569 20.7632 143.972 20.6984C143.557 20.7094 143.144 20.6298 142.762 20.4653C142.381 20.3008 142.04 20.0552 141.763 19.7456C141.486 19.436 141.279 19.0698 141.158 18.6725C141.036 18.2751 141.003 17.8561 141.06 17.4445C141.004 17.0317 141.039 16.6118 141.16 16.2133C141.281 15.8147 141.486 15.4468 141.762 15.1345C142.037 14.8222 142.377 14.5728 142.757 14.4031C143.137 14.2334 143.55 14.1474 143.966 14.151C145.721 14.151 146.779 15.3494 146.779 17.329V17.7631H142.327V17.8328C142.308 18.0642 142.337 18.297 142.413 18.5165C142.488 18.7359 142.609 18.9371 142.767 19.1072C142.925 19.2772 143.117 19.4123 143.33 19.5039C143.544 19.5954 143.774 19.6414 144.006 19.6388C144.304 19.6746 144.605 19.621 144.872 19.4849C145.139 19.3488 145.36 19.1363 145.506 18.8746L146.704 18.8746ZM142.327 16.843H145.511C145.527 16.6314 145.498 16.4189 145.427 16.2191C145.356 16.0193 145.243 15.8366 145.097 15.6828C144.951 15.529 144.774 15.4075 144.578 15.326C144.382 15.2446 144.172 15.205 143.96 15.2099C143.744 15.2072 143.531 15.2476 143.332 15.3287C143.132 15.4098 142.951 15.53 142.799 15.6822C142.647 15.8344 142.527 16.0155 142.446 16.2149C142.365 16.4142 142.324 16.6278 142.327 16.843Z" fill="white"/>
</g>
<defs>
<clipPath id="clip0_1_179">
<rect width="167.53" height="56" fill="white" transform="translate(0.0377808)"/>
</clipPath>
</defs>
</svg>
