<svg width="190" height="56" viewBox="0 0 190 56" fill="none" xmlns="http://www.w3.org/2000/svg">
<g clip-path="url(#clip0_137_95)">
<path d="M182.567 0H7.56747C3.70148 0 0.567474 3.13401 0.567474 7V49C0.567474 52.866 3.70148 56 7.56747 56H182.567C186.433 56 189.567 52.866 189.567 49V7C189.567 3.13401 186.433 0 182.567 0Z" fill="black"/>
<path d="M182.567 1.12C184.127 1.12 185.623 1.7395 186.725 2.84221C187.828 3.94493 188.447 5.44053 188.447 7V49C188.447 50.5595 187.828 52.0551 186.725 53.1578C185.623 54.2605 184.127 54.88 182.567 54.88H7.56747C6.008 54.88 4.5124 54.2605 3.40969 53.1578C2.30697 52.0551 1.68747 50.5595 1.68747 49V7C1.68747 5.44053 2.30697 3.94493 3.40969 2.84221C4.5124 1.7395 6.008 1.12 7.56747 1.12H182.567ZM182.567 0H7.56747C5.71096 0 3.93048 0.737498 2.61773 2.05025C1.30497 3.36301 0.567474 5.14348 0.567474 7L0.567474 49C0.567474 50.8565 1.30497 52.637 2.61773 53.9497C3.93048 55.2625 5.71096 56 7.56747 56H182.567C184.424 56 186.204 55.2625 187.517 53.9497C188.83 52.637 189.567 50.8565 189.567 49V7C189.567 5.14348 188.83 3.36301 187.517 2.05025C186.204 0.737498 184.424 0 182.567 0Z" fill="#A6A6A6"/>
<path d="M66.9555 14.336C66.9784 14.8494 66.8973 15.3622 66.7168 15.8434C66.5364 16.3246 66.2604 16.7643 65.9055 17.136C65.5083 17.5473 65.0284 17.8698 64.4975 18.0821C63.9666 18.2945 63.3968 18.3919 62.8255 18.368C62.2503 18.3736 61.6798 18.2644 61.1473 18.0469C60.6148 17.8294 60.131 17.5079 59.7243 17.1011C59.3176 16.6944 58.996 16.2106 58.7785 15.6782C58.561 15.1457 58.4518 14.5752 58.4575 14C58.45 13.4236 58.5577 12.8516 58.7744 12.3175C58.9911 11.7834 59.3123 11.2979 59.7193 10.8897C60.1262 10.4815 60.6106 10.1587 61.144 9.94032C61.6774 9.72193 62.2491 9.61233 62.8255 9.61798C63.4242 9.60982 64.0188 9.71922 64.5755 9.93998C65.1084 10.1334 65.5881 10.45 65.9755 10.864L65.2055 11.648C64.9322 11.3252 64.5869 11.071 64.1975 10.906C63.7804 10.7322 63.3333 10.6418 62.8815 10.64C62.4496 10.6316 62.0206 10.7118 61.621 10.8755C61.2213 11.0392 60.8593 11.2831 60.5575 11.592C60.2366 11.9045 59.9829 12.2793 59.812 12.6934C59.641 13.1075 59.5565 13.5521 59.5635 14C59.5492 14.4439 59.6249 14.8861 59.7861 15.2999C59.9473 15.7138 60.1907 16.0907 60.5015 16.408C60.8033 16.7169 61.1653 16.9607 61.565 17.1244C61.9646 17.2882 62.3936 17.3683 62.8255 17.36C63.6039 17.4003 64.3689 17.1453 64.9675 16.646C65.2484 16.404 65.4784 16.1085 65.6443 15.7769C65.8101 15.4452 65.9084 15.0839 65.9335 14.714H62.8255V13.706H66.8995C66.9308 13.9147 66.9495 14.125 66.9555 14.336Z" fill="white" stroke="white" stroke-width="0.2" stroke-miterlimit="10"/>
<path d="M73.3675 9.80005V10.836H69.5875V13.496H73.0315V14.504H69.5875V17.164H73.3675V18.2H68.4955V9.80005H73.3675Z" fill="white" stroke="white" stroke-width="0.2" stroke-miterlimit="10"/>
<path d="M77.9595 10.836V18.2H76.8815V10.836H74.5295V9.80005H80.3675V10.836H77.9595Z" fill="white" stroke="white" stroke-width="0.2" stroke-miterlimit="10"/>
<path d="M85.5615 18.2H84.4835V9.80005H85.5615V18.2Z" fill="white" stroke="white" stroke-width="0.2" stroke-miterlimit="10"/>
<path d="M90.3495 10.836V18.2H89.2715V10.836H86.9195V9.80005H92.6875V10.836H90.3495Z" fill="white" stroke="white" stroke-width="0.2" stroke-miterlimit="10"/>
<path d="M104.853 13.9999C104.874 14.5771 104.775 15.1522 104.563 15.6894C104.351 16.2265 104.03 16.7142 103.621 17.1219C102.799 17.9291 101.693 18.3813 100.541 18.3813C99.3894 18.3813 98.2835 17.9291 97.4615 17.1219C97.0525 16.7142 96.732 16.2265 96.5201 15.6894C96.3081 15.1522 96.2092 14.5771 96.2295 13.9999C96.2092 13.4228 96.3081 12.8477 96.5201 12.3105C96.732 11.7734 97.0525 11.2857 97.4615 10.8779C98.2817 10.0674 99.3883 9.61292 100.541 9.61292C101.695 9.61292 102.801 10.0674 103.621 10.8779C104.03 11.2857 104.351 11.7734 104.563 12.3105C104.775 12.8477 104.874 13.4228 104.853 13.9999ZM97.3215 13.9999C97.3069 14.4427 97.3812 14.8838 97.5399 15.2974C97.6986 15.711 97.9385 16.0886 98.2455 16.4079C98.5416 16.7167 98.8985 16.9608 99.2937 17.1246C99.6889 17.2885 100.114 17.3686 100.541 17.3599C100.958 17.3623 101.37 17.279 101.753 17.1153C102.136 16.9515 102.481 16.7107 102.767 16.4079C103.09 16.0969 103.345 15.7224 103.516 15.308C103.688 14.8935 103.771 14.4482 103.761 13.9999C103.771 13.5517 103.688 13.1063 103.516 12.6919C103.345 12.2775 103.09 11.903 102.767 11.5919C102.475 11.2821 102.121 11.0373 101.728 10.8733C101.335 10.7093 100.911 10.6298 100.485 10.6399C100.058 10.6313 99.6329 10.7114 99.2377 10.8752C98.8425 11.0391 98.4856 11.2831 98.1895 11.5919C97.8925 11.9158 97.6629 12.2955 97.5139 12.7089C97.3649 13.1222 97.2995 13.5611 97.3215 13.9999Z" fill="white" stroke="white" stroke-width="0.2" stroke-miterlimit="10"/>
<path d="M107.443 18.2H106.365V9.80005H107.681L111.769 16.338V14.714V9.80005H112.847V18.2H111.727L107.443 11.354V12.964V18.2Z" fill="white" stroke="white" stroke-width="0.2" stroke-miterlimit="10"/>
<path d="M95.9635 30.45C94.7839 30.4528 93.6317 30.8053 92.6524 31.4629C91.6732 32.1206 90.911 33.0538 90.4621 34.1446C90.0133 35.2355 89.898 36.4349 90.1308 37.5913C90.3637 38.7476 90.9342 39.809 91.7702 40.6411C92.6063 41.4732 93.6703 42.0387 94.8277 42.2661C95.9852 42.4935 97.184 42.3726 98.2727 41.9187C99.3615 41.4647 100.291 40.6981 100.944 39.7158C101.597 38.7335 101.944 37.5796 101.941 36.4C101.953 35.6131 101.806 34.832 101.509 34.1031C101.212 33.3742 100.772 32.7125 100.214 32.1573C99.6565 31.6022 98.9927 31.1649 98.2624 30.8716C97.5321 30.5783 96.7503 30.4349 95.9635 30.45ZM95.9635 40.012C95.2405 40.0626 94.519 39.8945 93.8928 39.5296C93.2667 39.1647 92.7647 38.6198 92.4523 37.9658C92.1399 37.3119 92.0314 36.5791 92.141 35.8626C92.2506 35.1462 92.5732 34.4793 93.0668 33.9487C93.5605 33.418 94.2023 33.0482 94.909 32.8871C95.6156 32.7261 96.3543 32.7814 97.0291 33.0458C97.7039 33.3101 98.2836 33.7714 98.6928 34.3696C99.102 34.9678 99.3217 35.6753 99.3235 36.4C99.346 36.8593 99.2764 37.3183 99.1187 37.7502C98.961 38.1821 98.7184 38.578 98.4053 38.9147C98.0921 39.2513 97.7147 39.5219 97.2954 39.7103C96.876 39.8988 96.4231 40.0014 95.9635 40.012ZM82.9155 30.45C81.7359 30.4528 80.5837 30.8053 79.6044 31.4629C78.6252 32.1206 77.863 33.0538 77.4141 34.1446C76.9653 35.2355 76.85 36.4349 77.0828 37.5913C77.3157 38.7476 77.8862 39.809 78.7222 40.6411C79.5583 41.4732 80.6223 42.0387 81.7797 42.2661C82.9372 42.4935 84.136 42.3726 85.2247 41.9187C86.3135 41.4647 87.2431 40.6981 87.8961 39.7158C88.5492 38.7335 88.8962 37.5796 88.8935 36.4C88.9049 35.6131 88.7579 34.832 88.4611 34.1031C88.1644 33.3742 87.724 32.7125 87.1662 32.1573C86.6085 31.6022 85.9447 31.1649 85.2144 30.8716C84.4841 30.5783 83.7023 30.4349 82.9155 30.45ZM82.9155 40.012C82.1925 40.0626 81.471 39.8945 80.8448 39.5296C80.2187 39.1647 79.7167 38.6198 79.4043 37.9658C79.0919 37.3119 78.9834 36.5791 79.093 35.8626C79.2026 35.1462 79.5252 34.4793 80.0188 33.9487C80.5125 33.418 81.1543 33.0482 81.861 32.8871C82.5676 32.7261 83.3063 32.7814 83.9811 33.0458C84.656 33.3101 85.2356 33.7714 85.6448 34.3696C86.054 34.9678 86.2737 35.6753 86.2755 36.4C86.298 36.8593 86.2284 37.3183 86.0707 37.7502C85.913 38.1821 85.6704 38.578 85.3573 38.9147C85.0441 39.2513 84.6667 39.5219 84.2474 39.7103C83.828 39.8988 83.3751 40.0014 82.9155 40.012ZM67.4035 32.284V34.804H73.4515C73.3567 35.991 72.8633 37.1109 72.0515 37.982C71.4448 38.6002 70.7151 39.084 69.9096 39.4024C69.1042 39.7207 68.2408 39.8664 67.3755 39.83C65.5932 39.83 63.884 39.122 62.6237 37.8618C61.3635 36.6016 60.6555 34.8923 60.6555 33.11C60.6555 31.3278 61.3635 29.6185 62.6237 28.3583C63.884 27.098 65.5932 26.39 67.3755 26.39C69.0841 26.3646 70.7339 27.0135 71.9675 28.196L73.7455 26.418C72.9111 25.5927 71.9203 24.9423 70.8313 24.5048C69.7423 24.0672 68.577 23.8514 67.4035 23.87C66.1589 23.8216 64.9173 24.0249 63.7532 24.4678C62.589 24.9107 61.5262 25.584 60.6285 26.4475C59.7308 27.3109 59.0167 28.3467 58.5289 29.4927C58.0411 30.6388 57.7896 31.8715 57.7896 33.117C57.7896 34.3626 58.0411 35.5953 58.5289 36.7414C59.0167 37.8874 59.7308 38.9232 60.6285 39.7866C61.5262 40.6501 62.589 41.3234 63.7532 41.7663C64.9173 42.2092 66.1589 42.4125 67.4035 42.364C68.6011 42.4119 69.7952 42.2058 70.9076 41.7595C72.0199 41.3131 73.0252 40.6365 73.8575 39.774C75.3276 38.159 76.111 36.0349 76.0415 33.852C76.0465 33.3267 76.0043 32.8019 75.9155 32.284H67.4035ZM130.837 34.244C130.472 33.1699 129.79 32.2319 128.88 31.5544C127.97 30.8769 126.875 30.4918 125.741 30.45C124.976 30.4485 124.218 30.6041 123.514 30.9072C122.811 31.2102 122.177 31.6543 121.653 32.212C121.128 32.7696 120.723 33.429 120.463 34.1494C120.203 34.8697 120.094 35.6357 120.141 36.4C120.13 37.678 120.531 38.9256 121.287 39.9564C122.042 40.9872 123.111 41.7459 124.333 42.1192C125.556 42.4925 126.866 42.4604 128.069 42.0276C129.271 41.5948 130.301 40.7846 131.005 39.718L128.975 38.318C128.673 38.8224 128.244 39.2389 127.73 39.5263C127.217 39.8136 126.638 39.9618 126.049 39.956C125.443 39.9811 124.843 39.822 124.328 39.4997C123.813 39.1774 123.408 38.7069 123.165 38.15L131.131 34.86L130.837 34.244ZM122.717 36.232C122.689 35.7972 122.748 35.361 122.89 34.9491C123.032 34.5372 123.255 34.1578 123.546 33.8332C123.837 33.5085 124.189 33.2452 124.583 33.0585C124.977 32.8718 125.404 32.7656 125.839 32.746C126.291 32.7185 126.74 32.8247 127.131 33.0513C127.522 33.278 127.837 33.6149 128.037 34.02L122.717 36.232ZM116.249 42H118.867V24.5H116.249V42ZM111.965 31.78H111.867C111.47 31.3474 110.984 31.0048 110.444 30.7754C109.903 30.546 109.319 30.4351 108.731 30.45C107.202 30.5242 105.759 31.1842 104.702 32.2933C103.646 33.4023 103.056 34.8753 103.056 36.407C103.056 37.9388 103.646 39.4118 104.702 40.5208C105.759 41.6298 107.202 42.2898 108.731 42.364C109.325 42.3759 109.914 42.2566 110.456 42.0146C110.998 41.7726 111.48 41.4139 111.867 40.964H111.965V41.818C111.965 44.1 110.747 45.318 108.787 45.318C108.133 45.3037 107.497 45.095 106.961 44.7186C106.425 44.3422 106.013 43.815 105.777 43.204L103.509 44.142C103.929 45.1952 104.658 46.0963 105.6 46.7262C106.543 47.3562 107.654 47.6853 108.787 47.67C111.853 47.67 114.387 45.864 114.387 41.468V30.8H111.965V31.78ZM108.955 40.012C108.038 39.9548 107.177 39.5501 106.548 38.8804C105.919 38.2106 105.568 37.3261 105.568 36.407C105.568 35.488 105.919 34.6035 106.548 33.9337C107.177 33.2639 108.038 32.8592 108.955 32.802C109.404 32.8214 109.844 32.9307 110.249 33.1235C110.654 33.3163 111.016 33.5887 111.314 33.9244C111.612 34.2601 111.839 34.6522 111.982 35.0775C112.126 35.5028 112.182 35.9526 112.147 36.4C112.186 36.849 112.132 37.3011 111.991 37.7289C111.849 38.1566 111.623 38.5513 111.324 38.8889C111.026 39.2266 110.662 39.5002 110.255 39.6932C109.848 39.8863 109.406 39.9947 108.955 40.012ZM143.101 24.5H136.829V42H139.447V35.364H143.101C143.848 35.4176 144.597 35.317 145.302 35.0683C146.008 34.8196 146.655 34.4282 147.202 33.9185C147.75 33.4089 148.186 32.7919 148.485 32.106C148.784 31.4201 148.938 30.6801 148.938 29.932C148.938 29.184 148.784 28.4439 148.485 27.7581C148.186 27.0722 147.75 26.4552 147.202 25.9455C146.655 25.4359 146.008 25.0445 145.302 24.7958C144.597 24.5471 143.848 24.4464 143.101 24.5ZM143.101 32.9H139.447V26.936H143.157C143.952 26.936 144.714 27.2517 145.276 27.8135C145.838 28.3754 146.153 29.1374 146.153 29.932C146.153 30.7266 145.838 31.4887 145.276 32.0505C144.714 32.6124 143.952 32.928 143.157 32.928L143.101 32.9ZM159.257 30.394C158.304 30.3353 157.354 30.5572 156.526 31.0325C155.697 31.5077 155.026 32.2154 154.595 33.068L156.905 34.034C157.139 33.6132 157.489 33.269 157.914 33.0429C158.339 32.8168 158.82 32.7186 159.299 32.76C159.632 32.7212 159.969 32.749 160.29 32.8417C160.612 32.9344 160.911 33.0902 161.172 33.3C161.433 33.5098 161.649 33.7695 161.808 34.0637C161.967 34.358 162.066 34.6811 162.099 35.014V35.182C161.258 34.7395 160.321 34.5089 159.369 34.51C156.877 34.51 154.329 35.91 154.329 38.458C154.354 38.9996 154.487 39.5307 154.721 40.0198C154.955 40.5089 155.285 40.946 155.691 41.3051C156.097 41.6642 156.571 41.9381 157.086 42.1104C157.6 42.2826 158.143 42.3499 158.683 42.308C159.34 42.3444 159.995 42.2054 160.581 41.9052C161.166 41.6051 161.661 41.1546 162.015 40.6H162.099V42H164.619V35.266C164.619 32.2 162.295 30.422 159.313 30.422L159.257 30.394ZM158.935 39.984C158.081 39.984 156.891 39.55 156.891 38.5C156.891 37.1 158.375 36.624 159.691 36.624C160.523 36.6035 161.345 36.8066 162.071 37.212C161.984 37.9723 161.623 38.675 161.057 39.1898C160.49 39.7047 159.757 39.9968 158.991 40.012L158.935 39.984ZM173.803 30.8L170.807 38.388H170.723L167.615 30.8H164.815L169.477 41.412L166.817 47.306H169.617L176.715 30.8H173.803ZM150.283 42H152.887V24.5H150.283V42Z" fill="white"/>
<path d="M29.5755 27.188L14.6655 43.008C14.8283 43.6063 15.1266 44.1593 15.5372 44.624C15.9477 45.0888 16.4596 45.4529 17.0333 45.6884C17.607 45.9238 18.2272 46.0242 18.8459 45.9818C19.4646 45.9395 20.0652 45.7554 20.6015 45.444L37.4015 35.756L29.5755 27.188Z" fill="#EA4335"/>
<path d="M44.6535 24.5L37.4015 20.3L29.2535 27.566L37.4295 35.7561L44.6395 31.5561C45.2804 31.2128 45.8162 30.7021 46.1897 30.0783C46.5632 29.4545 46.7605 28.7411 46.7605 28.014C46.7605 27.287 46.5632 26.5736 46.1897 25.9498C45.8162 25.326 45.2804 24.8153 44.6395 24.472L44.6535 24.5Z" fill="#FBBC04"/>
<path d="M14.6655 12.9919C14.5914 13.3226 14.5585 13.6612 14.5675 13.9999V41.9999C14.5699 42.3498 14.617 42.698 14.7075 43.0359L30.1075 27.6359L14.6655 12.9919Z" fill="#4285F4"/>
<path d="M29.6875 28L37.4015 20.286L20.6015 10.57C19.9703 10.1948 19.2497 9.99649 18.5155 9.99597C17.6298 9.99851 16.7694 10.2916 16.0663 10.8303C15.3633 11.369 14.8564 12.1234 14.6235 12.978L29.6875 28Z" fill="#34A853"/>
</g>
<defs>
<clipPath id="clip0_137_95">
<rect width="189" height="56" fill="white" transform="translate(0.567474)"/>
</clipPath>
</defs>
</svg>
