<svg width="302" height="300" viewBox="0 0 302 300" fill="none" xmlns="http://www.w3.org/2000/svg">
<path opacity="0.1" d="M195.199 131.836C190.512 131.836 185.824 132.422 181.137 133.594L132.504 84.9609C132.504 80.2734 132.504 75.5859 133.09 70.8984C138.363 38.0859 163.559 10.5469 196.371 2.92969C210.434 -0.585938 223.91 -0.585938 236.215 2.34375C242.66 4.10156 245.004 12.3047 240.316 16.9922L199.887 57.4219V100.781H243.832L284.262 60.9375C288.949 56.25 297.152 58.0078 298.91 64.4531C301.84 76.7578 301.84 90.8203 298.324 104.883C292.465 130.078 274.301 150.586 250.863 161.133L239.144 150C227.426 138.281 212.191 131.836 195.199 131.836ZM226.254 163.477L294.809 230.859C303.012 239.648 303.012 253.711 294.809 261.914L263.754 292.969C254.965 301.172 241.488 301.172 232.699 292.969L164.144 224.414C150.668 210.938 148.324 190.43 155.941 174.023L93.832 111.914H57.5038L1.25385 37.5L38.7538 0L113.168 56.25V92.5781L175.863 155.273C192.269 147.656 212.191 150 226.254 163.477ZM134.262 179.883C131.332 193.359 133.09 206.836 138.363 219.141L68.6367 288.867C61.0195 296.484 50.4726 300 40.5117 300C30.5507 300 20.0038 296.484 12.3867 288.867C-2.84772 273.047 -2.84772 248.438 12.3867 232.617L99.6913 145.312L134.262 179.883ZM38.7538 276.562C46.371 276.562 52.8163 270.703 52.8163 262.5C52.8163 254.883 46.371 248.438 38.7538 248.438C30.5507 248.438 24.6913 254.883 24.6913 262.5C24.6913 270.703 30.5507 276.562 38.7538 276.562Z" fill="#37B7FF"/>
</svg>
