<svg width="28" height="33" viewBox="0 0 28 33" fill="none" xmlns="http://www.w3.org/2000/svg">
<path d="M28 13.125C25.1875 13.1875 22.5625 12.3125 20.3125 10.6875V21.875C20.3125 29.6875 11.8125 34.5625 5.0625 30.6875C-1.6875 26.75 -1.6875 17 5.0625 13.0625C7 11.9375 9.3125 11.5 11.5625 11.8125V17.4375C8.125 16.3125 4.8125 19.375 5.5625 22.875C6.375 26.375 10.625 27.75 13.3125 25.3125C14.25 24.4375 14.8125 23.1875 14.8125 21.875V0H20.3125C20.3125 0.5 20.3125 0.9375 20.4375 1.4375C20.8125 3.5 22 5.3125 23.8125 6.4375C25 7.25 26.5 7.6875 28 7.6875V13.125Z" fill="white"/>
</svg>
