<svg width="118" height="29" viewBox="0 0 118 29" fill="none" xmlns="http://www.w3.org/2000/svg">
<path d="M11.9168 28.92C10.9301 28.92 10.1301 28.6933 9.51676 28.24C8.90342 27.76 8.42342 27.0267 8.07676 26.04L0.276757 4.32C-0.14991 3.12 -0.0832433 2.10667 0.476757 1.28C1.06342 0.426667 2.09009 0 3.55676 0C4.54342 0 5.31676 0.24 5.87676 0.72C6.43676 1.17333 6.87676 1.89333 7.19676 2.88L13.1568 20.76H11.2768L17.6768 2.88C18.0501 1.89333 18.5168 1.17333 19.0768 0.72C19.6368 0.24 20.3568 0 21.2368 0C22.1168 0 22.8234 0.24 23.3568 0.72C23.8901 1.17333 24.3301 1.90667 24.6768 2.92L30.6768 20.76H29.0768L35.1968 2.88C35.5168 1.89333 35.9434 1.17333 36.4768 0.72C37.0368 0.24 37.8101 0 38.7968 0C40.0234 0 40.9168 0.426667 41.4768 1.28C42.0634 2.10667 42.1301 3.12 41.6768 4.32L33.7968 26.08C33.4501 27.04 32.9701 27.76 32.3568 28.24C31.7701 28.6933 30.9834 28.92 29.9968 28.92C28.9834 28.92 28.1701 28.6933 27.5568 28.24C26.9701 27.76 26.5034 27.0267 26.1568 26.04L20.5168 10.2H21.5168L15.7568 26.08C15.3834 27.04 14.9034 27.76 14.3168 28.24C13.7301 28.6933 12.9301 28.92 11.9168 28.92Z" fill="white"/>
<path d="M53.6186 29C51.2186 29 49.1386 28.5867 47.3786 27.76C45.6453 26.9067 44.312 25.7067 43.3786 24.16C42.4453 22.6133 41.9786 20.7867 41.9786 18.68C41.9786 16.6533 42.4186 14.88 43.2986 13.36C44.2053 11.8133 45.432 10.6133 46.9786 9.76C48.552 8.88 50.3386 8.44 52.3386 8.44C53.8053 8.44 55.1386 8.68 56.3386 9.16C57.5386 9.61333 58.5653 10.2933 59.4186 11.2C60.272 12.08 60.912 13.1467 61.3386 14.4C61.792 15.6533 62.0186 17.0533 62.0186 18.6C62.0186 19.1333 61.872 19.5333 61.5786 19.8C61.2853 20.04 60.8186 20.16 60.1786 20.16H47.9386V16.8H56.8186L56.1786 17.32C56.1786 16.3333 56.0453 15.5333 55.7786 14.92C55.512 14.3067 55.112 13.84 54.5786 13.52C54.072 13.2 53.432 13.04 52.6586 13.04C51.832 13.04 51.112 13.24 50.4986 13.64C49.912 14.0133 49.4586 14.5733 49.1386 15.32C48.8186 16.0667 48.6586 17 48.6586 18.12V18.48C48.6586 20.3733 49.072 21.7333 49.8986 22.56C50.752 23.36 52.0586 23.76 53.8186 23.76C54.4053 23.76 55.072 23.6933 55.8186 23.56C56.592 23.4 57.3253 23.1867 58.0186 22.92C58.712 22.6533 59.312 22.6133 59.8186 22.8C60.3253 22.96 60.712 23.2533 60.9786 23.68C61.272 24.08 61.432 24.5467 61.4586 25.08C61.4853 25.5867 61.3653 26.0933 61.0986 26.6C60.832 27.08 60.392 27.4533 59.7786 27.72C58.8453 28.1467 57.8453 28.4667 56.7786 28.68C55.7386 28.8933 54.6853 29 53.6186 29Z" fill="white"/>
<path d="M69.4061 28.56C68.1528 28.56 67.1928 28.24 66.5261 27.6C65.8861 26.9333 65.5661 25.9867 65.5661 24.76V4.16C65.5661 2.93333 65.8861 2 66.5261 1.36C67.1928 0.693334 68.1528 0.36 69.4061 0.36H77.2461C82.1528 0.36 85.9395 1.58667 88.6061 4.04C91.2995 6.49333 92.6461 9.96 92.6461 14.44C92.6461 16.68 92.2995 18.68 91.6061 20.44C90.9128 22.1733 89.9128 23.6533 88.6061 24.88C87.2995 26.08 85.6861 27 83.7661 27.64C81.8728 28.2533 79.6995 28.56 77.2461 28.56H69.4061ZM72.9261 22.6H76.7661C78.1795 22.6 79.3928 22.4267 80.4061 22.08C81.4461 21.7333 82.2995 21.2267 82.9661 20.56C83.6595 19.8933 84.1661 19.0533 84.4861 18.04C84.8328 17.0267 85.0061 15.8267 85.0061 14.44C85.0061 11.6667 84.3261 9.62667 82.9661 8.32C81.6061 6.98667 79.5395 6.32 76.7661 6.32H72.9261V22.6Z" fill="white"/>
<path d="M106.491 29C104.305 29 102.398 28.5867 100.771 27.76C99.1448 26.9333 97.8781 25.7467 96.9714 24.2C96.0648 22.6533 95.6115 20.8267 95.6115 18.72C95.6115 17.12 95.8648 15.6933 96.3714 14.44C96.8781 13.16 97.6115 12.08 98.5714 11.2C99.5314 10.2933 100.678 9.61333 102.011 9.16C103.345 8.68 104.838 8.44 106.491 8.44C108.678 8.44 110.585 8.85333 112.211 9.68C113.838 10.5067 115.091 11.6933 115.971 13.24C116.878 14.76 117.331 16.5867 117.331 18.72C117.331 20.2933 117.078 21.72 116.571 23C116.065 24.28 115.331 25.3733 114.371 26.28C113.438 27.16 112.291 27.84 110.931 28.32C109.598 28.7733 108.118 29 106.491 29ZM106.491 23.76C107.211 23.76 107.851 23.5867 108.411 23.24C108.971 22.8667 109.398 22.32 109.691 21.6C110.011 20.8533 110.171 19.8933 110.171 18.72C110.171 16.9333 109.825 15.6533 109.131 14.88C108.438 14.08 107.558 13.68 106.491 13.68C105.771 13.68 105.131 13.8533 104.571 14.2C104.011 14.5467 103.571 15.0933 103.251 15.84C102.931 16.56 102.771 17.52 102.771 18.72C102.771 20.48 103.118 21.76 103.811 22.56C104.505 23.36 105.398 23.76 106.491 23.76Z" fill="white"/>
</svg>
